<?xml version="1.0" encoding="UTF-8"?>
<svg width="32" height="32" version="1.1" viewBox="0 0 8.4667 8.4667" xmlns="http://www.w3.org/2000/svg">
 <g transform="translate(0 -288.53)">
  <circle cx="4.2333" cy="292.77" r="4.2333" fill="#43b041"/>
  <g transform="rotate(17.231 4.1228 292.28)">
   <g transform="translate(-.63477 -.48443)">
    <path d="m2.9734 294.31s-0.033409 0.96886 0.60136 0.96886c0.63477 0 0.60136-0.96886 0.60136-0.96886z"/>
    <path d="m2.9233 293.75s-0.11693-1.0858-0.46772-1.9043 0.18375-1.8208 1.2027-1.8208c1.019 0 1.0858 1.1693 0.7684 1.921-0.31738 0.75169-0.28397 1.7874-0.28397 1.7874z"/>
   </g>
   <g transform="translate(-.45102 .90203)">
    <path d="m6.7288 294.1s0.033409 0.96886-0.60136 0.96886c-0.63477 0-0.60136-0.96886-0.60136-0.96886z"/>
    <path d="m6.7789 293.54s0.11693-1.0858 0.46772-1.9043-0.18375-1.8208-1.2027-1.8208c-1.019 0-1.0858 1.1693-0.7684 1.921 0.31738 0.75169 0.28397 1.7874 0.28397 1.7874z"/>
   </g>
  </g>
 </g>
</svg>
