<?xml version="1.0" encoding="UTF-8"?>
<svg width="32" height="32" version="1.1" viewBox="0 0 8.4667 8.4667" xmlns="http://www.w3.org/2000/svg">
 <g transform="translate(0 -288.53)">
  <circle cx="4.2333" cy="292.77" r="4.2333" fill="#ae7d24"/>
  <g transform="matrix(.66604 -.1708 .18013 .63153 -50.448 109.97)" fill="none" stroke="#000" stroke-width=".59071">
   <ellipse cx="1.7707" cy="292.86" rx=".80181" ry="1.186" stroke-linecap="round" stroke-linejoin="round" stroke-miterlimit="8"/>
   <g>
    <path d="m2.6059 292.81h4.009v1.5702"/>
    <path d="m5.3788 292.88v0.86863"/>
    <path d="m4.2429 292.81v1.4366"/>
   </g>
  </g>
  <path d="m4.2333 288.53a4.2333 4.2333 0 0 0-4.2333 4.2333 4.2333 4.2333 0 0 0 0.16071 1.1462l8.1747-2.1906a4.2333 4.2333 0 0 0-4.1021-3.189z" fill="#db0"/>
  <g transform="matrix(.72626 0 0 .72626 5.2288 75.561)">
   <g transform="matrix(1 0 0 1 -6.782 3.8732)" stroke-width=".36431" aria-label="m">
    <path d="m1.7669 294.61v-3.5804h0.54279v0.50233q0.16857-0.26297 0.44839-0.42142 0.27982-0.16182 0.63718-0.16182 0.39782 0 0.65067 0.16519 0.25622 0.1652 0.36073 0.46187 0.42479-0.62706 1.1058-0.62706 0.53267 0 0.81924 0.29667 0.28656 0.29331 0.28656 0.90689v2.4577h-0.60347v-2.2554q0-0.3641-0.060684-0.52255-0.057313-0.16183-0.21239-0.2596-0.15508-0.0978-0.3641-0.0978-0.37759 0-0.62707 0.25285-0.24948 0.24948-0.24948 0.80238v2.0801h-0.60684v-2.3262q0-0.40456-0.14834-0.60684t-0.48547-0.20228q-0.25622 0-0.47536 0.13486-0.21577 0.13485-0.31353 0.39444-0.097769 0.2596-0.097769 0.74844v1.8576z" stroke-width=".36431"/>
   </g>
   <path d="m-5.5793 296.78h5.9133" fill="none" stroke="#000" stroke-width=".54647"/>
  </g>
 </g>
</svg>
