<?xml version="1.0" encoding="UTF-8"?>
<svg width="64" height="64" version="1.1" viewBox="0 0 64 64" xmlns="http://www.w3.org/2000/svg">
 <g transform="matrix(.76539 0 0 .76539 14.472 -.038689)">
  <path d="m2.3416 40.199c-8.5317-28.934 13.434-17.505 13.434-17.505s-20.467-12.103 7.7349-20.559c28.202-8.4559 17.505 13.841 17.505 13.841s11.869-20.799 20.559 7.7349c8.6895 28.534-13.638 17.505-13.638 17.505s20.658 11.616-7.7349 20.559c-28.393 8.9422-17.098-13.434-17.098-13.434s-12.23 20.792-20.762-8.142z" fill="#940"/>
  <path d="m42.237 31.955a10.279 10.279 0 0 1-10.279 10.279 10.279 10.279 0 0 1-10.279-10.279 10.279 10.279 0 0 1 10.279-10.279 10.279 10.279 0 0 1 10.279 10.279z" fill="#333"/>
  <path d="m37.149 31.955a5.1905 5.1905 0 0 1-5.1905 5.1905 5.1905 5.1905 0 0 1-5.1905-5.1905 5.1905 5.1905 0 0 1 5.1905-5.1905 5.1905 5.1905 0 0 1 5.1905 5.1905z" fill="#fff"/>
 </g>
 <path d="m24.051 33.214-21.513 23.1 4.7611 5.4664 22.924-23.1z" fill="#787878"/>
 <path d="m34.77 14.528c2.5771 0.03205 3.5802 1.4363 2.2429 2.5061-2.1397 1.7118-6.9898 5.8485-4.5648 9.4147 2.425 3.5662 6.419 7.1323 9.6999 4.2793 3.2809-2.853 6.8471-7.9882 6.5618-2.2823-0.2853 5.7059-3.8514 11.982-10.271 13.409-6.4192 1.4265-6.562-1.4266-10.413 2.2823l-17.662 18.401s-4.1368 2.7103-7.5604-0.42791c-3.4236-3.1383-0.57062-8.4162-0.57062-8.4162l17.947-19.114s1.7118-1.5693 1.1413-4.2796c-0.57059-2.7103 0.57048-10.413 7.2749-13.979 2.5142-1.3373 4.6273-1.812 6.1736-1.7928zm-9.5065 22c-0.78031-0.02862-1.383 0.602-1.383 0.602l-17.083 17.99s-2.1464 1.54-0.7551 3.0966c1.3913 1.5566 2.7522-0.24344 2.7522-0.24344l17.662-18.544s1.1828-1.0316-0.05922-2.3328c-0.38814-0.4066-0.77949-0.55595-1.1342-0.56897z" fill="#909090"/>
</svg>
