<?xml version="1.0" encoding="UTF-8"?>
<svg width="64" height="64" version="1.1" viewBox="0 0 64 64" xmlns="http://www.w3.org/2000/svg">
 <g transform="matrix(1.0023 0 0 1.0023 -.00084848 -.090966)">
  <path d="m2.3416 40.199c-8.5317-28.934 13.434-17.505 13.434-17.505s-20.467-12.103 7.7349-20.559c28.202-8.4559 17.505 13.841 17.505 13.841s11.869-20.799 20.559 7.7349c8.6895 28.534-13.638 17.505-13.638 17.505s20.658 11.616-7.7349 20.559c-28.393 8.9422-17.098-13.434-17.098-13.434s-12.23 20.792-20.762-8.142z" fill="#008eba"/>
  <path d="m42.237 31.955a10.279 10.279 0 0 1-10.279 10.279 10.279 10.279 0 0 1-10.279-10.279 10.279 10.279 0 0 1 10.279-10.279 10.279 10.279 0 0 1 10.279 10.279z" fill="#333"/>
  <path d="m37.149 31.955a5.1905 5.1905 0 0 1-5.1905 5.1905 5.1905 5.1905 0 0 1-5.1905-5.1905 5.1905 5.1905 0 0 1 5.1905-5.1905 5.1905 5.1905 0 0 1 5.1905 5.1905z" fill="#fff"/>
 </g>
</svg>
